<svg width="41" height="40" viewBox="0 0 41 40" fill="none" xmlns="http://www.w3.org/2000/svg">
<path d="M26.566 19.9919C26.5642 18.3878 25.9132 16.85 24.756 15.7157C23.5989 14.5814 22.03 13.9435 20.3934 13.9417C19.8249 13.9418 19.2591 14.0192 18.7122 14.1716C17.4016 14.5386 16.2514 15.3195 15.4398 16.3928C14.6476 17.4321 14.2196 18.6947 14.2194 19.9919C14.2212 21.5964 14.8723 23.1346 16.0298 24.2691C17.1872 25.4037 18.7565 26.0417 20.3934 26.0435C20.9172 26.042 21.4386 25.975 21.945 25.8444L24.2522 29.1977L27.5695 27.0339L25.2706 23.6926C26.1112 22.6351 26.567 21.3326 26.566 19.9919Z" fill="#E22901"/>
<path d="M20.4042 0C14.9927 0 9.80275 2.10712 5.97625 5.85784C2.14974 9.60857 0 14.6957 0 20C0 25.3043 2.14974 30.3914 5.97625 34.1422C7.87103 35.9993 10.1203 37.4725 12.5959 38.4776C15.0714 39.4827 17.7247 40 20.4042 40C25.8157 40 31.0057 37.8929 34.8322 34.1422C38.6587 30.3914 40.8085 25.3043 40.8085 20C40.8085 14.6957 38.6587 9.60857 34.8322 5.85784C31.0057 2.10712 25.8157 0 20.4042 0ZM29.8296 30.3226L26.535 32.5013L24.2511 29.1841C23.0306 29.6753 21.7237 29.9277 20.4042 29.9267C17.7178 29.9267 15.1414 28.881 13.2412 27.0195C11.3411 25.158 10.2729 22.6332 10.2715 20C10.2689 17.4078 11.3045 14.9182 13.1554 13.0667C14.0892 12.1274 15.2033 11.3784 16.4336 10.8626C17.689 10.3385 19.0397 10.0692 20.4042 10.0707C23.0912 10.0707 25.6681 11.1167 27.5682 12.9787C29.4683 14.8408 30.5363 17.3664 30.537 20C30.5389 21.3065 30.2769 22.6003 29.766 23.807C29.2552 25.0138 28.5056 26.1093 27.5607 27.0306L29.8296 30.3226Z" fill="#E22901"/>
</svg>
