<svg width="258" height="56" viewBox="0 0 258 56" fill="none" xmlns="http://www.w3.org/2000/svg">
<path d="M34.566 27.9919C34.5642 26.3878 33.9132 24.85 32.756 23.7157C31.5989 22.5814 30.03 21.9435 28.3934 21.9417C27.8249 21.9418 27.2591 22.0192 26.7122 22.1716C25.4016 22.5386 24.2514 23.3195 23.4398 24.3928C22.6476 25.4321 22.2196 26.6947 22.2194 27.9919C22.2212 29.5964 22.8723 31.1346 24.0298 32.2691C25.1872 33.4037 26.7565 34.0417 28.3934 34.0435C28.9172 34.042 29.4386 33.975 29.945 33.8444L32.2522 37.1977L35.5695 35.0339L33.2706 31.6926C34.1112 30.6351 34.567 29.3326 34.566 27.9919Z" fill="#E22901"/>
<path d="M28.4042 8C22.9927 8 17.8027 10.1071 13.9762 13.8578C10.1497 17.6086 8 22.6957 8 28C8 33.3043 10.1497 38.3914 13.9762 42.1422C15.871 43.9993 18.1203 45.4725 20.5959 46.4776C23.0714 47.4827 25.7247 48 28.4042 48C33.8157 48 39.0057 45.8929 42.8322 42.1422C46.6587 38.3914 48.8085 33.3043 48.8085 28C48.8085 22.6957 46.6587 17.6086 42.8322 13.8578C39.0057 10.1071 33.8157 8 28.4042 8ZM37.8296 38.3226L34.535 40.5013L32.2511 37.1841C31.0306 37.6753 29.7237 37.9277 28.4042 37.9267C25.7178 37.9267 23.1414 36.881 21.2412 35.0195C19.3411 33.158 18.2729 30.6332 18.2715 28C18.2689 25.4078 19.3045 22.9182 21.1554 21.0667C22.0892 20.1274 23.2033 19.3784 24.4336 18.8626C25.689 18.3385 27.0397 18.0692 28.4042 18.0707C31.0912 18.0707 33.6681 19.1167 35.5682 20.9787C37.4683 22.8408 38.5363 25.3664 38.537 28C38.5389 29.3065 38.2769 30.6003 37.766 31.807C37.2552 33.0138 36.5056 34.1093 35.5607 35.0306L37.8296 38.3226Z" fill="#E22901"/>
<path d="M66.4297 21.7667H73.8379C74.3412 21.7566 74.8395 21.8661 75.2905 22.0856C75.6908 22.2851 76.0464 22.5611 76.3363 22.8972C76.6114 23.2186 76.8267 23.5849 76.9725 23.9792C77.1115 24.3438 77.1853 24.7292 77.1904 25.1183V30.1188C77.1862 30.6603 77.0454 31.1924 76.7809 31.6679C76.4911 32.1938 76.0439 32.62 75.4996 32.8895L75.4183 32.9236L76.7546 34.3817H73.6113L68.5099 28.7747H71.6532L73.7943 31.1183H74.1139C74.2726 31.1228 74.4301 31.0896 74.5728 31.0215C74.696 30.9592 74.8063 30.8752 74.8983 30.7737C74.9852 30.6809 75.0533 30.5726 75.0987 30.4548C75.1427 30.3479 75.1654 30.2339 75.1655 30.1188V24.8734C75.1641 24.7538 75.1353 24.6361 75.0814 24.5288C75.0246 24.4069 74.9458 24.2959 74.8489 24.2014C74.744 24.1002 74.6221 24.0174 74.4887 23.9565C74.3395 23.8885 74.1767 23.8545 74.0122 23.8568H66.4355C66.2737 23.8539 66.1136 23.888 65.9678 23.9565C65.8408 24.0153 65.7271 24.0987 65.6337 24.2014C65.5467 24.2942 65.4786 24.4025 65.4332 24.5203C65.3893 24.6272 65.3666 24.7413 65.3664 24.8564V30.1188C65.3666 30.2339 65.3893 30.3479 65.4332 30.4548C65.4786 30.5726 65.5467 30.6809 65.6337 30.7737C65.727 30.8773 65.8407 30.9615 65.9678 31.0215C66.1139 31.089 66.274 31.1222 66.4355 31.1183H67.8067L69.6632 33.217H66.4355C65.9723 33.2281 65.5131 33.1305 65.0962 32.9322C64.7266 32.7486 64.3978 32.4951 64.1288 32.1862C63.8755 31.8888 63.6787 31.5494 63.5478 31.1838C63.4193 30.8456 63.3515 30.4882 63.3473 30.1273V24.8649C63.3515 24.504 63.4193 24.1466 63.5478 23.8085C63.6779 23.4434 63.8748 23.1047 64.1288 22.8089C64.3962 22.4983 64.7254 22.2446 65.0962 22.0629C65.5103 21.8615 65.9674 21.76 66.4297 21.7667Z" fill="white"/>
<path d="M81.0602 21.7669H83.0938V29.8798C83.0972 30.0258 83.1256 30.1702 83.178 30.3069C83.2331 30.4583 83.318 30.5976 83.4278 30.7169C83.5474 30.8416 83.6892 30.944 83.8462 31.0188C84.0271 31.1048 84.2264 31.1467 84.4273 31.1413H91.5856C91.7865 31.146 91.9856 31.104 92.1667 31.0188C92.3184 30.9488 92.4545 30.8497 92.5667 30.7275C92.6789 30.6052 92.7652 30.4623 92.8204 30.3069C92.8728 30.1702 92.9012 30.0258 92.9046 29.8798V21.7811H94.9382V29.8798C94.9329 30.2689 94.8592 30.6543 94.7203 31.0188C94.5758 31.4158 94.3615 31.785 94.087 32.1095C93.797 32.4456 93.4415 32.7215 93.0411 32.921C92.5908 33.1419 92.092 33.2513 91.5886 33.2399H84.4302C83.9267 33.2513 83.4281 33.1419 82.9776 32.921C82.5773 32.7215 82.2217 32.4456 81.9318 32.1095C81.6553 31.7858 81.4399 31.4165 81.2954 31.0188C81.1566 30.6543 81.0828 30.2689 81.0776 29.8798L81.0602 21.7669Z" fill="white"/>
<path d="M98.1013 33.2257L103.912 21.7669H106.035L111.822 33.2257H109.228L104.963 24.7996L100.716 33.2257H98.1013Z" fill="white"/>
<path d="M115.349 21.7669H117.383V33.2257H115.349V21.7669Z" fill="white"/>
<path d="M130.234 33.2257V21.7669H132.407L142.058 30.6515V21.7669H144.091V33.2257H141.983L132.267 24.3412V33.2257H130.234Z" fill="white"/>
<path d="M147.961 21.7669H160.64V23.8655H147.961V21.7669ZM147.961 26.457H160.64V28.5386H149.986V31.127H160.64V33.2257H147.961V26.457Z" fill="white"/>
<path d="M164.189 21.7669H178.035V23.8655H172.123V33.2257H170.09V23.8655H164.168L164.189 21.7669Z" fill="white"/>
<path d="M183.572 21.7669L186.649 30.3098L188.891 24.0963H191.506L193.746 30.3098L196.822 21.7669H199.431L194.815 33.2257H192.706L190.213 27.0635L187.724 33.2257H185.6L180.951 21.7669H183.572Z" fill="white"/>
<path d="M202.651 25.127C202.656 24.738 202.731 24.3526 202.87 23.9881C203.012 23.5932 203.227 23.2268 203.503 22.9059C203.792 22.5698 204.148 22.2938 204.548 22.0943C205 21.8748 205.498 21.7654 206.001 21.7754H213.127C213.63 21.7654 214.129 21.8748 214.58 22.0943C214.981 22.2957 215.337 22.5713 215.632 22.9059C215.911 23.2255 216.13 23.5922 216.277 23.9881C216.416 24.3526 216.489 24.738 216.494 25.127V29.8797C216.489 30.2689 216.416 30.6543 216.277 31.0188C216.131 31.4179 215.912 31.7875 215.632 32.1094C215.337 32.444 214.981 32.7196 214.58 32.9209C214.13 33.1418 213.63 33.2513 213.127 33.2399H206.001C205.498 33.2513 204.998 33.1418 204.548 32.9209C204.148 32.7215 203.792 32.4456 203.503 32.1094C203.226 31.7864 203.011 31.4168 202.87 31.0188C202.731 30.6543 202.656 30.2689 202.651 29.8797V25.127ZM204.684 29.8655C204.688 30.0115 204.716 30.1559 204.769 30.2926C204.825 30.4441 204.91 30.5833 205.019 30.7027C205.139 30.8267 205.28 30.9289 205.437 31.0045C205.619 31.0905 205.817 31.1324 206.018 31.127H213.145C213.332 31.1312 213.517 31.0954 213.69 31.0221C213.861 30.9489 214.014 30.8398 214.138 30.7027C214.244 30.5817 214.327 30.4427 214.382 30.2926C214.434 30.1558 214.462 30.0114 214.463 29.8655V25.127C214.462 24.9821 214.434 24.8386 214.382 24.7028C214.328 24.5524 214.244 24.4133 214.138 24.2927C214.024 24.1644 213.885 24.0608 213.728 23.9881C213.547 23.9031 213.349 23.8611 213.148 23.8655H206.021C205.821 23.8601 205.621 23.9021 205.44 23.9881C205.283 24.0635 205.141 24.1668 205.021 24.2927C204.911 24.4116 204.826 24.551 204.772 24.7028C204.719 24.8385 204.691 24.982 204.688 25.127L204.684 29.8655Z" fill="white"/>
<path d="M230.855 21.7675C231.358 21.7574 231.856 21.8669 232.307 22.0864C232.707 22.2859 233.064 22.5619 233.353 22.898C233.629 23.2194 233.843 23.5857 233.989 23.9801C234.127 24.3452 234.199 24.7303 234.204 25.1191V26.3493C234.199 26.7382 234.125 27.1234 233.989 27.4884C233.845 27.886 233.63 28.2554 233.353 28.579C233.064 28.9152 232.707 29.1911 232.307 29.3905C231.856 29.6114 231.358 29.7209 230.855 29.7095H230.12L234.016 33.2178H230.904L225.094 28.0208V27.6109H230.863C231.063 27.6155 231.263 27.5736 231.444 27.4884C231.6 27.415 231.74 27.3125 231.856 27.1865C231.963 27.0658 232.044 26.9267 232.098 26.7765C232.15 26.6398 232.179 26.4954 232.182 26.3493V25.1191C232.181 24.8806 232.111 24.647 231.98 24.4456C231.85 24.2441 231.665 24.0828 231.444 23.9801C231.263 23.895 231.063 23.8529 230.863 23.8577H222.384V33.2178H220.349V21.759L230.855 21.7675Z" fill="white"/>
<path d="M237.974 21.7669H240.007V26.4627H241.445L246.764 21.7726H249.876L243.52 27.4936L249.876 33.2315H246.764L241.445 28.5443H240.007V33.2315H237.974V21.7669Z" fill="white"/>
</svg>
